<svg xmlns="http://www.w3.org/2000/svg" xmlns:xlink="http://www.w3.org/1999/xlink" width="2000" zoomAndPan="magnify" viewBox="0 0 1500 149.999998" height="200" preserveAspectRatio="xMidYMid meet" version="1.2"><defs/><g id="b4939e0549"><g style="fill:#ffffff;fill-opacity:1;"><g transform="translate(55.386904, 96.37713)"><path style="stroke:none" d="M 3.46875 -60.578125 L 18.515625 -60.578125 C 23.304688 -60.578125 26.867188 -59.304688 29.203125 -56.765625 C 31.546875 -54.234375 32.71875 -50.515625 32.71875 -45.609375 L 32.71875 -14.96875 C 32.71875 -10.0625 31.546875 -6.335938 29.203125 -3.796875 C 26.867188 -1.265625 23.304688 0 18.515625 0 L 3.46875 0 Z M 12.984375 -51.921875 L 12.984375 -8.65625 L 18.34375 -8.65625 C 19.84375 -8.65625 21.023438 -9.085938 21.890625 -9.953125 C 22.753906 -10.816406 23.1875 -12.347656 23.1875 -14.546875 L 23.1875 -46.046875 C 23.1875 -48.234375 22.753906 -49.757812 21.890625 -50.625 C 21.023438 -51.488281 19.84375 -51.921875 18.34375 -51.921875 Z M 12.984375 -51.921875 "/></g></g><g style="fill:#ffffff;fill-opacity:1;"><g transform="translate(119.866027, 96.37713)"><path style="stroke:none" d="M 3.46875 -60.578125 L 12.984375 -60.578125 L 12.984375 -8.65625 L 28.640625 -8.65625 L 28.640625 0 L 3.46875 0 Z M 3.46875 -60.578125 "/></g></g><g style="fill:#ffffff;fill-opacity:1;"><g transform="translate(178.546771, 96.37713)"><path style="stroke:none" d="M 12.984375 -35.046875 L 26.046875 -35.046875 L 26.046875 -26.390625 L 12.984375 -26.390625 L 12.984375 -8.65625 L 29.421875 -8.65625 L 29.421875 0 L 3.46875 0 L 3.46875 -60.578125 L 29.421875 -60.578125 L 29.421875 -51.921875 L 12.984375 -51.921875 Z M 12.984375 -35.046875 "/></g></g><g style="fill:#ffffff;fill-opacity:1;"><g transform="translate(239.56417, 96.37713)"><path style="stroke:none" d="M 12.375 -20.078125 L 0.34375 -60.578125 L 10.296875 -60.578125 L 17.5625 -32.96875 L 24.84375 -60.578125 L 33.921875 -60.578125 L 21.890625 -20.078125 L 21.890625 0 L 12.375 0 Z M 12.375 -20.078125 "/></g></g><g style="fill:#ffffff;fill-opacity:1;"><g transform="translate(303.004764, 96.37713)"><path style="stroke:none" d="M 0.859375 -60.578125 L 30.296875 -60.578125 L 30.296875 -51.921875 L 20.34375 -51.921875 L 20.34375 0 L 10.8125 0 L 10.8125 -51.921875 L 0.859375 -51.921875 Z M 0.859375 -60.578125 "/></g></g><g style="fill:#ffffff;fill-opacity:1;"><g transform="translate(363.329818, 96.37713)"><path style="stroke:none" d="M 31.078125 -22.59375 L 31.078125 -14.546875 C 31.078125 -9.640625 29.878906 -5.875 27.484375 -3.25 C 25.085938 -0.625 21.550781 0.6875 16.875 0.6875 C 12.195312 0.6875 8.660156 -0.625 6.265625 -3.25 C 3.878906 -5.875 2.6875 -9.640625 2.6875 -14.546875 L 2.6875 -46.046875 C 2.6875 -50.953125 3.878906 -54.71875 6.265625 -57.34375 C 8.660156 -59.96875 12.195312 -61.28125 16.875 -61.28125 C 21.550781 -61.28125 25.085938 -59.96875 27.484375 -57.34375 C 29.878906 -54.71875 31.078125 -50.953125 31.078125 -46.046875 L 31.078125 -40.15625 L 22.0625 -40.15625 L 22.0625 -46.65625 C 22.0625 -48.84375 21.613281 -50.382812 20.71875 -51.28125 C 19.832031 -52.175781 18.640625 -52.625 17.140625 -52.625 C 15.640625 -52.625 14.441406 -52.175781 13.546875 -51.28125 C 12.648438 -50.382812 12.203125 -48.84375 12.203125 -46.65625 L 12.203125 -13.9375 C 12.203125 -11.738281 12.648438 -10.207031 13.546875 -9.34375 C 14.441406 -8.476562 15.640625 -8.046875 17.140625 -8.046875 C 18.640625 -8.046875 19.832031 -8.476562 20.71875 -9.34375 C 21.613281 -10.207031 22.0625 -11.738281 22.0625 -13.9375 L 22.0625 -22.59375 Z M 31.078125 -22.59375 "/></g></g><g style="fill:#ffffff;fill-opacity:1;"><g transform="translate(425.90501, 96.37713)"><path style="stroke:none" d="M 18.171875 -66.203125 L 25.96875 -66.203125 L 25.96875 5.625 L 18.171875 5.625 Z M 18.171875 -66.203125 "/></g></g><g style="fill:#ffffff;fill-opacity:1;"><g transform="translate(498.346062, 96.37713)"><path style="stroke:none" d="M 31.078125 -22.59375 L 31.078125 -14.546875 C 31.078125 -9.640625 29.878906 -5.875 27.484375 -3.25 C 25.085938 -0.625 21.550781 0.6875 16.875 0.6875 C 12.195312 0.6875 8.660156 -0.625 6.265625 -3.25 C 3.878906 -5.875 2.6875 -9.640625 2.6875 -14.546875 L 2.6875 -46.046875 C 2.6875 -50.953125 3.878906 -54.71875 6.265625 -57.34375 C 8.660156 -59.96875 12.195312 -61.28125 16.875 -61.28125 C 21.550781 -61.28125 25.085938 -59.96875 27.484375 -57.34375 C 29.878906 -54.71875 31.078125 -50.953125 31.078125 -46.046875 L 31.078125 -40.15625 L 22.0625 -40.15625 L 22.0625 -46.65625 C 22.0625 -48.84375 21.613281 -50.382812 20.71875 -51.28125 C 19.832031 -52.175781 18.640625 -52.625 17.140625 -52.625 C 15.640625 -52.625 14.441406 -52.175781 13.546875 -51.28125 C 12.648438 -50.382812 12.203125 -48.84375 12.203125 -46.65625 L 12.203125 -13.9375 C 12.203125 -11.738281 12.648438 -10.207031 13.546875 -9.34375 C 14.441406 -8.476562 15.640625 -8.046875 17.140625 -8.046875 C 18.640625 -8.046875 19.832031 -8.476562 20.71875 -9.34375 C 21.613281 -10.207031 22.0625 -11.738281 22.0625 -13.9375 L 22.0625 -22.59375 Z M 31.078125 -22.59375 "/></g></g><g style="fill:#ffffff;fill-opacity:1;"><g transform="translate(560.921208, 96.37713)"><path style="stroke:none" d="M 12.203125 -13.9375 C 12.203125 -11.738281 12.648438 -10.191406 13.546875 -9.296875 C 14.441406 -8.410156 15.640625 -7.96875 17.140625 -7.96875 C 18.640625 -7.96875 19.832031 -8.410156 20.71875 -9.296875 C 21.613281 -10.191406 22.0625 -11.738281 22.0625 -13.9375 L 22.0625 -46.65625 C 22.0625 -48.84375 21.613281 -50.382812 20.71875 -51.28125 C 19.832031 -52.175781 18.640625 -52.625 17.140625 -52.625 C 15.640625 -52.625 14.441406 -52.175781 13.546875 -51.28125 C 12.648438 -50.382812 12.203125 -48.84375 12.203125 -46.65625 Z M 2.6875 -46.046875 C 2.6875 -50.953125 3.925781 -54.71875 6.40625 -57.34375 C 8.882812 -59.96875 12.460938 -61.28125 17.140625 -61.28125 C 21.804688 -61.28125 25.378906 -59.96875 27.859375 -57.34375 C 30.347656 -54.71875 31.59375 -50.953125 31.59375 -46.046875 L 31.59375 -14.546875 C 31.59375 -9.640625 30.347656 -5.875 27.859375 -3.25 C 25.378906 -0.625 21.804688 0.6875 17.140625 0.6875 C 12.460938 0.6875 8.882812 -0.625 6.40625 -3.25 C 3.925781 -5.875 2.6875 -9.640625 2.6875 -14.546875 Z M 2.6875 -46.046875 "/></g></g><g style="fill:#ffffff;fill-opacity:1;"><g transform="translate(624.361847, 96.37713)"><path style="stroke:none" d="M 3.46875 -60.578125 L 12.984375 -60.578125 L 12.984375 -8.65625 L 28.640625 -8.65625 L 28.640625 0 L 3.46875 0 Z M 3.46875 -60.578125 "/></g></g><g style="fill:#ffffff;fill-opacity:1;"><g transform="translate(683.042569, 96.37713)"><path style="stroke:none" d="M 12.984375 -35.046875 L 26.046875 -35.046875 L 26.046875 -26.390625 L 12.984375 -26.390625 L 12.984375 -8.65625 L 29.421875 -8.65625 L 29.421875 0 L 3.46875 0 L 3.46875 -60.578125 L 29.421875 -60.578125 L 29.421875 -51.921875 L 12.984375 -51.921875 Z M 12.984375 -35.046875 "/></g></g><g style="fill:#ffffff;fill-opacity:1;"><g transform="translate(744.059991, 96.37713)"><path style="stroke:none" d="M 31.078125 -22.59375 L 31.078125 -14.546875 C 31.078125 -9.640625 29.878906 -5.875 27.484375 -3.25 C 25.085938 -0.625 21.550781 0.6875 16.875 0.6875 C 12.195312 0.6875 8.660156 -0.625 6.265625 -3.25 C 3.878906 -5.875 2.6875 -9.640625 2.6875 -14.546875 L 2.6875 -46.046875 C 2.6875 -50.953125 3.878906 -54.71875 6.265625 -57.34375 C 8.660156 -59.96875 12.195312 -61.28125 16.875 -61.28125 C 21.550781 -61.28125 25.085938 -59.96875 27.484375 -57.34375 C 29.878906 -54.71875 31.078125 -50.953125 31.078125 -46.046875 L 31.078125 -40.15625 L 22.0625 -40.15625 L 22.0625 -46.65625 C 22.0625 -48.84375 21.613281 -50.382812 20.71875 -51.28125 C 19.832031 -52.175781 18.640625 -52.625 17.140625 -52.625 C 15.640625 -52.625 14.441406 -52.175781 13.546875 -51.28125 C 12.648438 -50.382812 12.203125 -48.84375 12.203125 -46.65625 L 12.203125 -13.9375 C 12.203125 -11.738281 12.648438 -10.207031 13.546875 -9.34375 C 14.441406 -8.476562 15.640625 -8.046875 17.140625 -8.046875 C 18.640625 -8.046875 19.832031 -8.476562 20.71875 -9.34375 C 21.613281 -10.207031 22.0625 -11.738281 22.0625 -13.9375 L 22.0625 -22.59375 Z M 31.078125 -22.59375 "/></g></g><g style="fill:#ffffff;fill-opacity:1;"><g transform="translate(806.635137, 96.37713)"><path style="stroke:none" d="M 31.078125 -22.59375 L 31.078125 -14.546875 C 31.078125 -9.640625 29.878906 -5.875 27.484375 -3.25 C 25.085938 -0.625 21.550781 0.6875 16.875 0.6875 C 12.195312 0.6875 8.660156 -0.625 6.265625 -3.25 C 3.878906 -5.875 2.6875 -9.640625 2.6875 -14.546875 L 2.6875 -46.046875 C 2.6875 -50.953125 3.878906 -54.71875 6.265625 -57.34375 C 8.660156 -59.96875 12.195312 -61.28125 16.875 -61.28125 C 21.550781 -61.28125 25.085938 -59.96875 27.484375 -57.34375 C 29.878906 -54.71875 31.078125 -50.953125 31.078125 -46.046875 L 31.078125 -40.15625 L 22.0625 -40.15625 L 22.0625 -46.65625 C 22.0625 -48.84375 21.613281 -50.382812 20.71875 -51.28125 C 19.832031 -52.175781 18.640625 -52.625 17.140625 -52.625 C 15.640625 -52.625 14.441406 -52.175781 13.546875 -51.28125 C 12.648438 -50.382812 12.203125 -48.84375 12.203125 -46.65625 L 12.203125 -13.9375 C 12.203125 -11.738281 12.648438 -10.207031 13.546875 -9.34375 C 14.441406 -8.476562 15.640625 -8.046875 17.140625 -8.046875 C 18.640625 -8.046875 19.832031 -8.476562 20.71875 -9.34375 C 21.613281 -10.207031 22.0625 -11.738281 22.0625 -13.9375 L 22.0625 -22.59375 Z M 31.078125 -22.59375 "/></g></g><g style="fill:#ffffff;fill-opacity:1;"><g transform="translate(869.210283, 96.37713)"><path style="stroke:none" d="M 3.46875 -60.578125 L 12.984375 -60.578125 L 12.984375 0 L 3.46875 0 Z M 3.46875 -60.578125 "/></g></g><g style="fill:#ffffff;fill-opacity:1;"><g transform="translate(914.823134, 96.37713)"><path style="stroke:none" d="M 12.203125 -13.9375 C 12.203125 -11.738281 12.648438 -10.191406 13.546875 -9.296875 C 14.441406 -8.410156 15.640625 -7.96875 17.140625 -7.96875 C 18.640625 -7.96875 19.832031 -8.410156 20.71875 -9.296875 C 21.613281 -10.191406 22.0625 -11.738281 22.0625 -13.9375 L 22.0625 -46.65625 C 22.0625 -48.84375 21.613281 -50.382812 20.71875 -51.28125 C 19.832031 -52.175781 18.640625 -52.625 17.140625 -52.625 C 15.640625 -52.625 14.441406 -52.175781 13.546875 -51.28125 C 12.648438 -50.382812 12.203125 -48.84375 12.203125 -46.65625 Z M 2.6875 -46.046875 C 2.6875 -50.953125 3.925781 -54.71875 6.40625 -57.34375 C 8.882812 -59.96875 12.460938 -61.28125 17.140625 -61.28125 C 21.804688 -61.28125 25.378906 -59.96875 27.859375 -57.34375 C 30.347656 -54.71875 31.59375 -50.953125 31.59375 -46.046875 L 31.59375 -14.546875 C 31.59375 -9.640625 30.347656 -5.875 27.859375 -3.25 C 25.378906 -0.625 21.804688 0.6875 17.140625 0.6875 C 12.460938 0.6875 8.882812 -0.625 6.40625 -3.25 C 3.925781 -5.875 2.6875 -9.640625 2.6875 -14.546875 Z M 28.640625 -73.65625 L 19.296875 -63.53125 L 12.546875 -63.53125 L 18.78125 -73.65625 Z M 28.640625 -73.65625 "/></g></g><g style="fill:#ffffff;fill-opacity:1;"><g transform="translate(978.263682, 96.37713)"><path style="stroke:none" d="M 11.9375 -43.875 L 11.9375 0 L 3.375 0 L 3.375 -60.578125 L 15.3125 -60.578125 L 25.09375 -24.3125 L 25.09375 -60.578125 L 33.578125 -60.578125 L 33.578125 0 L 23.796875 0 Z M 11.9375 -43.875 "/></g></g><g style="fill:#ffffff;fill-opacity:1;"><g transform="translate(1044.387092, 96.37713)"><path style="stroke:none" d=""/></g></g><g style="fill:#ffffff;fill-opacity:1;"><g transform="translate(1086.970921, 96.37713)"><path style="stroke:none" d="M 12.546875 -60.578125 L 12.546875 -13.84375 C 12.546875 -11.65625 12.992188 -10.128906 13.890625 -9.265625 C 14.785156 -8.398438 15.984375 -7.96875 17.484375 -7.96875 C 18.984375 -7.96875 20.179688 -8.398438 21.078125 -9.265625 C 21.972656 -10.128906 22.421875 -11.65625 22.421875 -13.84375 L 22.421875 -60.578125 L 31.421875 -60.578125 L 31.421875 -14.453125 C 31.421875 -9.546875 30.222656 -5.78125 27.828125 -3.15625 C 25.429688 -0.53125 21.894531 0.78125 17.21875 0.78125 C 12.550781 0.78125 9.019531 -0.53125 6.625 -3.15625 C 4.226562 -5.78125 3.03125 -9.546875 3.03125 -14.453125 L 3.03125 -60.578125 Z M 12.546875 -60.578125 "/></g></g><g style="fill:#ffffff;fill-opacity:1;"><g transform="translate(1150.584595, 96.37713)"><path style="stroke:none" d="M 23.375 0 C 23.25 -0.40625 23.128906 -0.78125 23.015625 -1.125 C 22.898438 -1.46875 22.800781 -1.898438 22.71875 -2.421875 C 22.632812 -2.941406 22.578125 -3.601562 22.546875 -4.40625 C 22.515625 -5.21875 22.5 -6.226562 22.5 -7.4375 L 22.5 -16.96875 C 22.5 -19.789062 22.007812 -21.78125 21.03125 -22.9375 C 20.050781 -24.09375 18.460938 -24.671875 16.265625 -24.671875 L 12.984375 -24.671875 L 12.984375 0 L 3.46875 0 L 3.46875 -60.578125 L 17.828125 -60.578125 C 22.785156 -60.578125 26.375 -59.421875 28.59375 -57.109375 C 30.820312 -54.804688 31.9375 -51.320312 31.9375 -46.65625 L 31.9375 -41.890625 C 31.9375 -35.660156 29.859375 -31.5625 25.703125 -29.59375 C 28.128906 -28.613281 29.785156 -27.015625 30.671875 -24.796875 C 31.566406 -22.578125 32.015625 -19.878906 32.015625 -16.703125 L 32.015625 -7.359375 C 32.015625 -5.859375 32.070312 -4.546875 32.1875 -3.421875 C 32.3125 -2.296875 32.601562 -1.15625 33.0625 0 Z M 12.984375 -51.921875 L 12.984375 -33.328125 L 16.703125 -33.328125 C 18.492188 -33.328125 19.894531 -33.785156 20.90625 -34.703125 C 21.914062 -35.628906 22.421875 -37.300781 22.421875 -39.71875 L 22.421875 -45.703125 C 22.421875 -47.890625 22.03125 -49.472656 21.25 -50.453125 C 20.46875 -51.429688 19.238281 -51.921875 17.5625 -51.921875 Z M 12.984375 -51.921875 "/></g></g><g style="fill:#ffffff;fill-opacity:1;"><g transform="translate(1214.54443, 96.37713)"><path style="stroke:none" d="M 17.828125 -60.578125 C 22.785156 -60.578125 26.375 -59.421875 28.59375 -57.109375 C 30.820312 -54.804688 31.9375 -51.320312 31.9375 -46.65625 L 31.9375 -44.484375 C 31.9375 -41.367188 31.445312 -38.800781 30.46875 -36.78125 C 29.488281 -34.757812 27.929688 -33.257812 25.796875 -32.28125 C 28.390625 -31.300781 30.21875 -29.695312 31.28125 -27.46875 C 32.351562 -25.25 32.890625 -22.523438 32.890625 -19.296875 L 32.890625 -14.359375 C 32.890625 -9.691406 31.675781 -6.128906 29.25 -3.671875 C 26.832031 -1.222656 23.226562 0 18.4375 0 L 3.46875 0 L 3.46875 -60.578125 Z M 12.984375 -27.265625 L 12.984375 -8.65625 L 18.4375 -8.65625 C 20.050781 -8.65625 21.273438 -9.085938 22.109375 -9.953125 C 22.953125 -10.816406 23.375 -12.375 23.375 -14.625 L 23.375 -19.90625 C 23.375 -22.726562 22.894531 -24.660156 21.9375 -25.703125 C 20.988281 -26.742188 19.414062 -27.265625 17.21875 -27.265625 Z M 12.984375 -51.921875 L 12.984375 -35.921875 L 16.703125 -35.921875 C 18.492188 -35.921875 19.894531 -36.378906 20.90625 -37.296875 C 21.914062 -38.222656 22.421875 -39.898438 22.421875 -42.328125 L 22.421875 -45.703125 C 22.421875 -47.890625 22.03125 -49.472656 21.25 -50.453125 C 20.46875 -51.429688 19.238281 -51.921875 17.5625 -51.921875 Z M 12.984375 -51.921875 "/></g></g><g style="fill:#ffffff;fill-opacity:1;"><g transform="translate(1278.850426, 96.37713)"><path style="stroke:none" d="M 34.265625 0 L 24.671875 0 L 23.015625 -10.984375 L 11.34375 -10.984375 L 9.6875 0 L 0.953125 0 L 10.640625 -60.578125 L 24.578125 -60.578125 Z M 12.546875 -19.21875 L 21.71875 -19.21875 L 17.140625 -49.84375 Z M 12.546875 -19.21875 "/></g></g><g style="fill:#ffffff;fill-opacity:1;"><g transform="translate(1343.243031, 96.37713)"><path style="stroke:none" d="M 11.9375 -43.875 L 11.9375 0 L 3.375 0 L 3.375 -60.578125 L 15.3125 -60.578125 L 25.09375 -24.3125 L 25.09375 -60.578125 L 33.578125 -60.578125 L 33.578125 0 L 23.796875 0 Z M 11.9375 -43.875 "/></g></g><g style="fill:#ffffff;fill-opacity:1;"><g transform="translate(1409.36644, 96.37713)"><path style="stroke:none" d="M 34.265625 0 L 24.671875 0 L 23.015625 -10.984375 L 11.34375 -10.984375 L 9.6875 0 L 0.953125 0 L 10.640625 -60.578125 L 24.578125 -60.578125 Z M 12.546875 -19.21875 L 21.71875 -19.21875 L 17.140625 -49.84375 Z M 12.546875 -19.21875 "/></g></g></g></svg>